<svg width="35" height="37" viewBox="0 0 35 37" fill="none" xmlns="http://www.w3.org/2000/svg">
<path d="M12.6897 18.9817C2.55592 14.2259 -0.00353102 9.22091 0.974471 6.10576C1.7652 3.63441 4.61597 2.45066 8.25747 3.11522L7.77887 5.77348C5.59397 5.3789 3.88767 5.85655 3.55473 6.93647C3.01371 8.61865 5.32346 12.5645 13.8342 16.5519L12.6897 18.9817Z" fill="#F7A491"/>
<path d="M22.2408 18.9817L21.0963 16.5311C29.607 12.5437 31.9168 8.59785 31.3757 6.91568C31.022 5.83576 29.3365 5.37887 27.1516 5.75269L26.673 3.09443C30.3145 2.45064 33.1653 3.63439 33.956 6.08497C34.9548 9.22088 32.3954 14.2259 22.2408 18.9817Z" fill="#F7A491"/>
<path d="M18.7242 15.5342H16.2272V29.49H18.7242V15.5342Z" fill="#F7A491"/>
<path d="M4.11658 0L10.6921 17.8186C11.7325 20.643 14.4376 22.5329 17.4549 22.5329C20.4721 22.5329 23.1772 20.6638 24.2176 17.8186L30.7931 0H4.11658V0Z" fill="#F7A491"/>
<path d="M18.9322 29.49H15.9982C13.3347 29.49 11.1914 31.6291 11.1914 34.2873H23.739C23.739 31.6291 21.5957 29.49 18.9322 29.49Z" fill="#F7A491"/>
<path d="M24.4572 36.7546V34.2625H10.4738V36.7546H24.4572Z" fill="#FF7C7C"/>
<path d="M17.4756 2.88672L18.9738 7.49713H23.8222L19.8894 10.3423L21.4084 14.9527L17.4756 12.1076L13.5428 14.9527L15.041 10.3423L11.1082 7.49713H15.9774L17.4756 2.88672Z" fill="#FFFBFA"/>
</svg>
