<svg width="35" height="35" viewBox="0 0 35 35" fill="none" xmlns="http://www.w3.org/2000/svg">
<path d="M17.5 35C27.165 35 35 27.165 35 17.5C35 7.83502 27.165 0 17.5 0C7.83502 0 0 7.83502 0 17.5C0 27.165 7.83502 35 17.5 35Z" fill="#F7A491"/>
<path d="M17.5 32.4487C9.257 32.4487 2.58411 25.7431 2.58411 17.5328C2.58411 9.32254 9.257 2.58423 17.5 2.58423C25.743 2.58423 32.4159 9.28983 32.4159 17.5001C32.4159 25.7104 25.743 32.4487 17.5 32.4487ZM17.5 3.72909C9.91121 3.72909 3.72897 9.91133 3.72897 17.5001C3.72897 25.0889 9.91121 31.2711 17.5 31.2711C25.0888 31.2711 31.271 25.0889 31.271 17.5001C31.271 9.91133 25.0888 3.72909 17.5 3.72909Z" fill="#C4886E"/>
<path d="M17.4999 7.81763L19.6588 14.5232H26.6915L20.9999 18.6447L23.1915 25.3176L17.4999 21.1961L11.8083 25.3176L13.9999 18.6447L8.30835 14.5232H15.3411L17.4999 7.81763Z" fill="white"/>
</svg>
