<svg width="1440" height="1232" viewBox="0 0 1440 1232" fill="none" xmlns="http://www.w3.org/2000/svg">
<g clip-path="url(#clip0_401_693)">
<path opacity="0.2" d="M111.041 384.546C-26.3026 590.816 312.316 523.083 108.252 701.756C-222.846 917.483 -256.724 587.7 -590.71 206.762C-924.695 -174.176 -384.055 -2.1034 -24.2095 124.623C-77.7349 155.989 244.971 183.403 111.041 384.546Z" fill="#A1A7E3"/>
<path opacity="0.2" d="M1376.93 973.377C1430.95 823.113 1289.22 852.154 1371.96 727.879C1507.63 583.691 1528.34 841.463 1676.82 1159.61C1825.3 1477.76 1593.58 1307.09 1439.11 1184.05C1461.11 1163.46 1324.26 1119.91 1376.93 973.377Z" fill="#A1A7E3"/>
<g opacity="0.6">
<mask id="mask0_401_693" style="mask-type:alpha" maskUnits="userSpaceOnUse" x="-54" y="1008" width="281" height="354">
<ellipse cx="86.6375" cy="1184.91" rx="119.806" ry="190.428" transform="rotate(-29.2994 86.6375 1184.91)" fill="#4953BE"/>
</mask>
<g mask="url(#mask0_401_693)">
<rect width="248.064" height="3.70311" transform="matrix(0.798849 -0.601532 0.485994 0.873962 -2.89282 1257.08)" fill="white"/>
<rect width="248.064" height="3.70311" transform="matrix(0.798849 -0.601532 0.485994 0.873962 -8.98193 1246.13)" fill="white"/>
<rect width="248.064" height="3.70311" transform="matrix(0.798849 -0.601532 0.485994 0.873962 -15.0708 1235.18)" fill="white"/>
<rect width="248.064" height="3.70311" transform="matrix(0.798849 -0.601532 0.485994 0.873962 3.19629 1268.03)" fill="white"/>
<rect width="248.064" height="3.70311" transform="matrix(0.798849 -0.601532 0.485994 0.873962 9.28516 1278.98)" fill="white"/>
<rect width="248.064" height="3.70311" transform="matrix(0.798849 -0.601532 0.485994 0.873962 15.3743 1289.93)" fill="white"/>
<rect width="248.064" height="3.70311" transform="matrix(0.798849 -0.601532 0.485994 0.873962 21.4634 1300.88)" fill="white"/>
<rect width="248.064" height="3.70311" transform="matrix(0.798849 -0.601532 0.485994 0.873962 34.5952 1338.36)" fill="white"/>
<rect width="248.064" height="3.70311" transform="matrix(0.798849 -0.601532 0.485994 0.873962 28.5061 1327.41)" fill="white"/>
<rect width="248.064" height="3.70311" transform="matrix(0.798849 -0.601532 0.485994 0.873962 22.417 1316.46)" fill="white"/>
<rect width="248.064" height="3.70311" transform="matrix(0.798849 -0.601532 0.485994 0.873962 40.6841 1349.31)" fill="white"/>
<rect width="248.064" height="3.70311" transform="matrix(0.798849 -0.601532 0.485994 0.873962 46.7729 1360.26)" fill="white"/>
<rect width="248.064" height="3.70311" transform="matrix(0.798849 -0.601532 0.485994 0.873962 52.8623 1371.21)" fill="white"/>
<rect width="248.064" height="3.70311" transform="matrix(0.798849 -0.601532 0.485994 0.873962 108.903 1374.26)" fill="white"/>
<rect width="248.064" height="3.70311" transform="matrix(0.798849 -0.601532 0.485994 0.873962 102.814 1363.31)" fill="white"/>
<rect width="248.064" height="3.70311" transform="matrix(0.798849 -0.601532 0.485994 0.873962 -38.7708 1205.82)" fill="white"/>
<rect width="248.064" height="3.70311" transform="matrix(0.798849 -0.601532 0.485994 0.873962 -44.8599 1194.87)" fill="white"/>
<rect width="248.064" height="3.70311" transform="matrix(0.798849 -0.601532 0.485994 0.873962 -50.9487 1183.92)" fill="white"/>
<rect width="248.064" height="3.70311" transform="matrix(0.798849 -0.601532 0.485994 0.873962 -32.6816 1216.77)" fill="white"/>
<rect width="248.064" height="3.70311" transform="matrix(0.798849 -0.601532 0.485994 0.873962 -26.5928 1227.72)" fill="white"/>
<rect width="248.064" height="3.70311" transform="matrix(0.798849 -0.601532 0.485994 0.873962 -20.5037 1238.67)" fill="white"/>
<rect width="248.064" height="3.70311" transform="matrix(0.798849 -0.601532 0.485994 0.873962 -14.4148 1249.62)" fill="white"/>
<rect width="248.064" height="3.70311" transform="matrix(0.798849 -0.601532 0.485994 0.873962 -1.28271 1287.11)" fill="white"/>
<rect width="248.064" height="3.70311" transform="matrix(0.798849 -0.601532 0.485994 0.873962 -7.37183 1276.16)" fill="white"/>
<rect width="248.064" height="3.70311" transform="matrix(0.798849 -0.601532 0.485994 0.873962 -13.4609 1265.21)" fill="white"/>
<rect width="248.064" height="3.70311" transform="matrix(0.798849 -0.601532 0.485994 0.873962 4.80615 1298.06)" fill="white"/>
<rect width="248.064" height="3.70311" transform="matrix(0.798849 -0.601532 0.485994 0.873962 10.895 1309.01)" fill="white"/>
<rect width="248.064" height="3.70311" transform="matrix(0.798849 -0.601532 0.485994 0.873962 16.9844 1319.96)" fill="white"/>
<rect width="248.064" height="3.70311" transform="matrix(0.798849 -0.601532 0.485994 0.873962 23.0732 1330.91)" fill="white"/>
<rect width="248.064" height="3.70311" transform="matrix(0.798849 -0.601532 0.485994 0.873962 -139.998 1063.59)" fill="white"/>
<rect width="248.064" height="3.70311" transform="matrix(0.798849 -0.601532 0.485994 0.873962 -146.087 1052.64)" fill="white"/>
<rect width="248.064" height="3.70311" transform="matrix(0.798849 -0.601532 0.485994 0.873962 -152.176 1041.69)" fill="white"/>
<rect width="248.064" height="3.70311" transform="matrix(0.798849 -0.601532 0.485994 0.873962 -133.908 1074.54)" fill="white"/>
<rect width="248.064" height="3.70311" transform="matrix(0.798849 -0.601532 0.485994 0.873962 -127.82 1085.49)" fill="white"/>
<rect width="248.064" height="3.70311" transform="matrix(0.798849 -0.601532 0.485994 0.873962 -121.73 1096.44)" fill="white"/>
<rect width="248.064" height="3.70311" transform="matrix(0.798849 -0.601532 0.485994 0.873962 -115.642 1107.39)" fill="white"/>
<rect width="248.064" height="3.70311" transform="matrix(0.798849 -0.601532 0.485994 0.873962 -102.51 1144.88)" fill="white"/>
<rect width="248.064" height="3.70311" transform="matrix(0.798849 -0.601532 0.485994 0.873962 -108.599 1133.93)" fill="white"/>
<rect width="248.064" height="3.70311" transform="matrix(0.798849 -0.601532 0.485994 0.873962 -114.688 1122.98)" fill="white"/>
<rect width="248.064" height="3.70311" transform="matrix(0.798849 -0.601532 0.485994 0.873962 -96.4207 1155.83)" fill="white"/>
<rect width="248.064" height="3.70311" transform="matrix(0.798849 -0.601532 0.485994 0.873962 -90.3318 1166.77)" fill="white"/>
<rect width="248.064" height="3.70311" transform="matrix(0.798849 -0.601532 0.485994 0.873962 -84.2424 1177.73)" fill="white"/>
<rect width="248.064" height="3.70311" transform="matrix(0.798849 -0.601532 0.485994 0.873962 -78.1536 1188.67)" fill="white"/>
</g>
</g>
<mask id="mask1_401_693" style="mask-type:alpha" maskUnits="userSpaceOnUse" x="1361" y="125" width="266" height="365">
<ellipse cx="1494.36" cy="307.723" rx="119.806" ry="190.428" transform="rotate(-22.4132 1494.36 307.723)" fill="#4953BE"/>
</mask>
<g mask="url(#mask1_401_693)">
<rect width="248.064" height="3.70311" transform="matrix(0.798849 -0.601532 0.485994 0.873962 1404.83 379.893)" fill="#FF6D69"/>
<rect width="248.064" height="3.70311" transform="matrix(0.798849 -0.601532 0.485994 0.873962 1398.74 368.943)" fill="#FF6D69"/>
<rect width="248.064" height="3.70311" transform="matrix(0.798849 -0.601532 0.485994 0.873962 1392.65 357.993)" fill="#FF6D69"/>
<rect width="248.064" height="3.70311" transform="matrix(0.798849 -0.601532 0.485994 0.873962 1410.92 390.843)" fill="#FF6D69"/>
<rect width="248.064" height="3.70311" transform="matrix(0.798849 -0.601532 0.485994 0.873962 1417.01 401.792)" fill="#FF6D69"/>
<rect width="248.064" height="3.70311" transform="matrix(0.798849 -0.601532 0.485994 0.873962 1423.1 412.742)" fill="#FF6D69"/>
<rect width="248.064" height="3.70311" transform="matrix(0.798849 -0.601532 0.485994 0.873962 1429.19 423.692)" fill="#FF6D69"/>
<rect width="248.064" height="3.70311" transform="matrix(0.798849 -0.601532 0.485994 0.873962 1436.23 450.226)" fill="#FF6D69"/>
<rect width="248.064" height="3.70311" transform="matrix(0.798849 -0.601532 0.485994 0.873962 1430.14 439.276)" fill="#FF6D69"/>
<rect width="248.064" height="3.70311" transform="matrix(0.798849 -0.601532 0.485994 0.873962 1368.95 328.638)" fill="#FF6D69"/>
<rect width="248.064" height="3.70311" transform="matrix(0.798849 -0.601532 0.485994 0.873962 1362.87 317.689)" fill="#FF6D69"/>
<rect width="248.064" height="3.70311" transform="matrix(0.798849 -0.601532 0.485994 0.873962 1356.78 306.739)" fill="#FF6D69"/>
<rect width="248.064" height="3.70311" transform="matrix(0.798849 -0.601532 0.485994 0.873962 1375.04 339.588)" fill="#FF6D69"/>
<rect width="248.064" height="3.70311" transform="matrix(0.798849 -0.601532 0.485994 0.873962 1381.13 350.538)" fill="#FF6D69"/>
<rect width="248.064" height="3.70311" transform="matrix(0.798849 -0.601532 0.485994 0.873962 1387.22 361.488)" fill="#FF6D69"/>
<rect width="248.064" height="3.70311" transform="matrix(0.798849 -0.601532 0.485994 0.873962 1393.31 372.438)" fill="#FF6D69"/>
<rect width="248.064" height="3.70311" transform="matrix(0.798849 -0.601532 0.485994 0.873962 1406.44 409.922)" fill="#FF6D69"/>
<rect width="248.064" height="3.70311" transform="matrix(0.798849 -0.601532 0.485994 0.873962 1400.35 398.972)" fill="#FF6D69"/>
<rect width="248.064" height="3.70311" transform="matrix(0.798849 -0.601532 0.485994 0.873962 1394.26 388.022)" fill="#FF6D69"/>
<rect width="248.064" height="3.70311" transform="matrix(0.798849 -0.601532 0.485994 0.873962 1412.53 420.872)" fill="#FF6D69"/>
<rect width="248.064" height="3.70311" transform="matrix(0.798849 -0.601532 0.485994 0.873962 1418.62 431.821)" fill="#FF6D69"/>
<rect width="248.064" height="3.70311" transform="matrix(0.798849 -0.601532 0.485994 0.873962 1424.71 442.771)" fill="#FF6D69"/>
<rect width="248.064" height="3.70311" transform="matrix(0.798849 -0.601532 0.485994 0.873962 1430.8 453.721)" fill="#FF6D69"/>
<rect width="248.064" height="3.70311" transform="matrix(0.798849 -0.601532 0.485994 0.873962 1267.73 186.408)" fill="#FF6D69"/>
<rect width="248.064" height="3.70311" transform="matrix(0.798849 -0.601532 0.485994 0.873962 1261.64 175.458)" fill="#FF6D69"/>
<rect width="248.064" height="3.70311" transform="matrix(0.798849 -0.601532 0.485994 0.873962 1255.55 164.509)" fill="#FF6D69"/>
<rect width="248.064" height="3.70311" transform="matrix(0.798849 -0.601532 0.485994 0.873962 1273.82 197.358)" fill="#FF6D69"/>
<rect width="248.064" height="3.70311" transform="matrix(0.798849 -0.601532 0.485994 0.873962 1279.91 208.308)" fill="#FF6D69"/>
<rect width="248.064" height="3.70311" transform="matrix(0.798849 -0.601532 0.485994 0.873962 1285.99 219.258)" fill="#FF6D69"/>
<rect width="248.064" height="3.70311" transform="matrix(0.798849 -0.601532 0.485994 0.873962 1292.08 230.208)" fill="#FF6D69"/>
<rect width="248.064" height="3.70311" transform="matrix(0.798849 -0.601532 0.485994 0.873962 1305.22 267.691)" fill="#FF6D69"/>
<rect width="248.064" height="3.70311" transform="matrix(0.798849 -0.601532 0.485994 0.873962 1299.13 256.742)" fill="#FF6D69"/>
<rect width="248.064" height="3.70311" transform="matrix(0.798849 -0.601532 0.485994 0.873962 1293.04 245.792)" fill="#FF6D69"/>
<rect width="248.064" height="3.70311" transform="matrix(0.798849 -0.601532 0.485994 0.873962 1311.3 278.641)" fill="#FF6D69"/>
<rect width="248.064" height="3.70311" transform="matrix(0.798849 -0.601532 0.485994 0.873962 1317.39 289.591)" fill="#FF6D69"/>
<rect width="248.064" height="3.70311" transform="matrix(0.798849 -0.601532 0.485994 0.873962 1323.48 300.541)" fill="#FF6D69"/>
<rect width="248.064" height="3.70311" transform="matrix(0.798849 -0.601532 0.485994 0.873962 1329.57 311.491)" fill="#FF6D69"/>
</g>
</g>
<defs>
<clipPath id="clip0_401_693">
<rect width="1440" height="1232" fill="white"/>
</clipPath>
</defs>
</svg>
