<svg width="1440" height="1232" viewBox="0 0 1440 1232" fill="none" xmlns="http://www.w3.org/2000/svg">
<g clip-path="url(#clip0_401_1032)">
<mask id="mask0_401_1032" style="mask-type:alpha" maskUnits="userSpaceOnUse" x="1361" y="185" width="266" height="365">
<ellipse cx="1494.36" cy="367.723" rx="119.806" ry="190.428" transform="rotate(-22.4132 1494.36 367.723)" fill="#4953BE"/>
</mask>
<g mask="url(#mask0_401_1032)">
<rect width="248.064" height="3.70311" transform="matrix(0.798849 -0.601532 0.485994 0.873962 1404.83 439.893)" fill="#4953BE"/>
<rect width="248.064" height="3.70311" transform="matrix(0.798849 -0.601532 0.485994 0.873962 1398.74 428.943)" fill="#4953BE"/>
<rect width="248.064" height="3.70311" transform="matrix(0.798849 -0.601532 0.485994 0.873962 1392.65 417.993)" fill="#4953BE"/>
<rect width="248.064" height="3.70311" transform="matrix(0.798849 -0.601532 0.485994 0.873962 1410.92 450.843)" fill="#4953BE"/>
<rect width="248.064" height="3.70311" transform="matrix(0.798849 -0.601532 0.485994 0.873962 1417.01 461.792)" fill="#4953BE"/>
<rect width="248.064" height="3.70311" transform="matrix(0.798849 -0.601532 0.485994 0.873962 1423.1 472.742)" fill="#4953BE"/>
<rect width="248.064" height="3.70311" transform="matrix(0.798849 -0.601532 0.485994 0.873962 1429.19 483.692)" fill="#4953BE"/>
<rect width="248.064" height="3.70311" transform="matrix(0.798849 -0.601532 0.485994 0.873962 1436.23 510.226)" fill="#4953BE"/>
<rect width="248.064" height="3.70311" transform="matrix(0.798849 -0.601532 0.485994 0.873962 1430.14 499.276)" fill="#4953BE"/>
<rect width="248.064" height="3.70311" transform="matrix(0.798849 -0.601532 0.485994 0.873962 1368.95 388.638)" fill="#4953BE"/>
<rect width="248.064" height="3.70311" transform="matrix(0.798849 -0.601532 0.485994 0.873962 1362.87 377.689)" fill="#4953BE"/>
<rect width="248.064" height="3.70311" transform="matrix(0.798849 -0.601532 0.485994 0.873962 1356.78 366.739)" fill="#4953BE"/>
<rect width="248.064" height="3.70311" transform="matrix(0.798849 -0.601532 0.485994 0.873962 1375.04 399.588)" fill="#4953BE"/>
<rect width="248.064" height="3.70311" transform="matrix(0.798849 -0.601532 0.485994 0.873962 1381.13 410.538)" fill="#4953BE"/>
<rect width="248.064" height="3.70311" transform="matrix(0.798849 -0.601532 0.485994 0.873962 1387.22 421.488)" fill="#4953BE"/>
<rect width="248.064" height="3.70311" transform="matrix(0.798849 -0.601532 0.485994 0.873962 1393.31 432.438)" fill="#4953BE"/>
<rect width="248.064" height="3.70311" transform="matrix(0.798849 -0.601532 0.485994 0.873962 1406.44 469.922)" fill="#4953BE"/>
<rect width="248.064" height="3.70311" transform="matrix(0.798849 -0.601532 0.485994 0.873962 1400.35 458.972)" fill="#4953BE"/>
<rect width="248.064" height="3.70311" transform="matrix(0.798849 -0.601532 0.485994 0.873962 1394.26 448.022)" fill="#4953BE"/>
<rect width="248.064" height="3.70311" transform="matrix(0.798849 -0.601532 0.485994 0.873962 1412.53 480.872)" fill="#4953BE"/>
<rect width="248.064" height="3.70311" transform="matrix(0.798849 -0.601532 0.485994 0.873962 1418.62 491.821)" fill="#4953BE"/>
<rect width="248.064" height="3.70311" transform="matrix(0.798849 -0.601532 0.485994 0.873962 1424.71 502.771)" fill="#4953BE"/>
<rect width="248.064" height="3.70311" transform="matrix(0.798849 -0.601532 0.485994 0.873962 1430.8 513.721)" fill="#4953BE"/>
<rect width="248.064" height="3.70311" transform="matrix(0.798849 -0.601532 0.485994 0.873962 1267.73 246.408)" fill="#4953BE"/>
<rect width="248.064" height="3.70311" transform="matrix(0.798849 -0.601532 0.485994 0.873962 1261.64 235.458)" fill="#4953BE"/>
<rect width="248.064" height="3.70311" transform="matrix(0.798849 -0.601532 0.485994 0.873962 1255.55 224.509)" fill="#4953BE"/>
<rect width="248.064" height="3.70311" transform="matrix(0.798849 -0.601532 0.485994 0.873962 1273.82 257.358)" fill="#4953BE"/>
<rect width="248.064" height="3.70311" transform="matrix(0.798849 -0.601532 0.485994 0.873962 1279.91 268.308)" fill="#4953BE"/>
<rect width="248.064" height="3.70311" transform="matrix(0.798849 -0.601532 0.485994 0.873962 1285.99 279.258)" fill="#4953BE"/>
<rect width="248.064" height="3.70311" transform="matrix(0.798849 -0.601532 0.485994 0.873962 1292.08 290.208)" fill="#4953BE"/>
<rect width="248.064" height="3.70311" transform="matrix(0.798849 -0.601532 0.485994 0.873962 1305.22 327.691)" fill="#4953BE"/>
<rect width="248.064" height="3.70311" transform="matrix(0.798849 -0.601532 0.485994 0.873962 1299.13 316.742)" fill="#4953BE"/>
<rect width="248.064" height="3.70311" transform="matrix(0.798849 -0.601532 0.485994 0.873962 1293.04 305.792)" fill="#4953BE"/>
<rect width="248.064" height="3.70311" transform="matrix(0.798849 -0.601532 0.485994 0.873962 1311.3 338.641)" fill="#4953BE"/>
<rect width="248.064" height="3.70311" transform="matrix(0.798849 -0.601532 0.485994 0.873962 1317.39 349.591)" fill="#4953BE"/>
<rect width="248.064" height="3.70311" transform="matrix(0.798849 -0.601532 0.485994 0.873962 1323.48 360.541)" fill="#4953BE"/>
<rect width="248.064" height="3.70311" transform="matrix(0.798849 -0.601532 0.485994 0.873962 1329.57 371.491)" fill="#4953BE"/>
</g>
<ellipse cx="87.1567" cy="27.812" rx="112.895" ry="179.443" transform="rotate(28.1327 87.1567 27.812)" fill="#C7CAEB"/>
<ellipse cx="1412.26" cy="1209.14" rx="111.114" ry="176.613" transform="rotate(28.1327 1412.26 1209.14)" fill="#FF7878"/>
<g opacity="0.6">
<mask id="mask1_401_1032" style="mask-type:alpha" maskUnits="userSpaceOnUse" x="-133" y="1000" width="318" height="320">
<ellipse cx="26.3624" cy="1159.72" rx="119.806" ry="190.428" transform="rotate(-44.5416 26.3624 1159.72)" fill="#4953BE"/>
</mask>
<g mask="url(#mask1_401_1032)">
<rect width="248.064" height="3.70311" transform="matrix(0.51342 -0.858138 0.779404 0.626522 -29.3881 1260.3)" fill="#4751C0"/>
<rect width="248.064" height="3.70311" transform="matrix(0.51342 -0.858138 0.779404 0.626522 -39.1533 1252.45)" fill="#4751C0"/>
<rect width="248.064" height="3.70311" transform="matrix(0.51342 -0.858138 0.779404 0.626522 -48.9183 1244.6)" fill="#4751C0"/>
<rect width="248.064" height="3.70311" transform="matrix(0.51342 -0.858138 0.779404 0.626522 -19.6229 1268.15)" fill="#4751C0"/>
<rect width="248.064" height="3.70311" transform="matrix(0.51342 -0.858138 0.779404 0.626522 -9.85791 1276)" fill="#4751C0"/>
<rect width="248.064" height="3.70311" transform="matrix(0.51342 -0.858138 0.779404 0.626522 -0.0925903 1283.85)" fill="#4751C0"/>
<rect width="248.064" height="3.70311" transform="matrix(0.51342 -0.858138 0.779404 0.626522 9.67242 1291.7)" fill="#4751C0"/>
<rect width="248.064" height="3.70311" transform="matrix(0.51342 -0.858138 0.779404 0.626522 35.9566 1321.48)" fill="#4751C0"/>
<rect width="248.064" height="3.70311" transform="matrix(0.51342 -0.858138 0.779404 0.626522 26.1913 1313.63)" fill="#4751C0"/>
<rect width="248.064" height="3.70311" transform="matrix(0.51342 -0.858138 0.779404 0.626522 16.4263 1305.78)" fill="#4751C0"/>
<rect width="248.064" height="3.70311" transform="matrix(0.51342 -0.858138 0.779404 0.626522 45.7217 1329.33)" fill="#4751C0"/>
<rect width="248.064" height="3.70311" transform="matrix(0.51342 -0.858138 0.779404 0.626522 55.4868 1337.18)" fill="#4751C0"/>
<rect width="248.064" height="3.70311" transform="matrix(0.51342 -0.858138 0.779404 0.626522 65.2521 1345.03)" fill="#4751C0"/>
<rect width="248.064" height="3.70311" transform="matrix(0.51342 -0.858138 0.779404 0.626522 75.0172 1352.88)" fill="#4751C0"/>
<rect width="248.064" height="3.70311" transform="matrix(0.51342 -0.858138 0.779404 0.626522 128.08 1334.59)" fill="#4751C0"/>
<rect width="248.064" height="3.70311" transform="matrix(0.51342 -0.858138 0.779404 0.626522 118.315 1326.74)" fill="#4751C0"/>
<rect width="248.064" height="3.70311" transform="matrix(0.51342 -0.858138 0.779404 0.626522 108.549 1318.89)" fill="#4751C0"/>
<rect width="248.064" height="3.70311" transform="matrix(0.51342 -0.858138 0.779404 0.626522 137.845 1342.44)" fill="#4751C0"/>
<rect width="248.064" height="3.70311" transform="matrix(0.51342 -0.858138 0.779404 0.626522 147.61 1350.29)" fill="#4751C0"/>
<rect width="248.064" height="3.70311" transform="matrix(0.51342 -0.858138 0.779404 0.626522 157.375 1358.14)" fill="#4751C0"/>
<rect width="248.064" height="3.70311" transform="matrix(0.51342 -0.858138 0.779404 0.626522 167.14 1365.99)" fill="#4751C0"/>
<rect width="248.064" height="3.70311" transform="matrix(0.51342 -0.858138 0.779404 0.626522 183.659 1387.92)" fill="#4751C0"/>
<rect width="248.064" height="3.70311" transform="matrix(0.51342 -0.858138 0.779404 0.626522 173.894 1380.07)" fill="#4751C0"/>
<rect width="248.064" height="3.70311" transform="matrix(0.51342 -0.858138 0.779404 0.626522 -81.9299 1226.34)" fill="#4751C0"/>
<rect width="248.064" height="3.70311" transform="matrix(0.51342 -0.858138 0.779404 0.626522 -91.6951 1218.49)" fill="#4751C0"/>
<rect width="248.064" height="3.70311" transform="matrix(0.51342 -0.858138 0.779404 0.626522 -101.46 1210.64)" fill="#4751C0"/>
<rect width="248.064" height="3.70311" transform="matrix(0.51342 -0.858138 0.779404 0.626522 -72.1648 1234.19)" fill="#4751C0"/>
<rect width="248.064" height="3.70311" transform="matrix(0.51342 -0.858138 0.779404 0.626522 -62.3997 1242.04)" fill="#4751C0"/>
<rect width="248.064" height="3.70311" transform="matrix(0.51342 -0.858138 0.779404 0.626522 -52.6345 1249.89)" fill="#4751C0"/>
<rect width="248.064" height="3.70311" transform="matrix(0.51342 -0.858138 0.779404 0.626522 -42.8694 1257.74)" fill="#4751C0"/>
<rect width="248.064" height="3.70311" transform="matrix(0.51342 -0.858138 0.779404 0.626522 -16.5852 1287.51)" fill="#4751C0"/>
<rect width="248.064" height="3.70311" transform="matrix(0.51342 -0.858138 0.779404 0.626522 -26.3505 1279.66)" fill="#4751C0"/>
<rect width="248.064" height="3.70311" transform="matrix(0.51342 -0.858138 0.779404 0.626522 -36.1155 1271.81)" fill="#4751C0"/>
<rect width="248.064" height="3.70311" transform="matrix(0.51342 -0.858138 0.779404 0.626522 -6.82013 1295.36)" fill="#4751C0"/>
<rect width="248.064" height="3.70311" transform="matrix(0.51342 -0.858138 0.779404 0.626522 2.94489 1303.21)" fill="#4751C0"/>
<rect width="248.064" height="3.70311" transform="matrix(0.51342 -0.858138 0.779404 0.626522 12.7103 1311.06)" fill="#4751C0"/>
<rect width="248.064" height="3.70311" transform="matrix(0.51342 -0.858138 0.779404 0.626522 22.4753 1318.91)" fill="#4751C0"/>
<rect width="248.064" height="3.70311" transform="matrix(0.51342 -0.858138 0.779404 0.626522 -124.871 1225.29)" fill="#4751C0"/>
</g>
</g>
</g>
<defs>
<clipPath id="clip0_401_1032">
<rect width="1440" height="1232" fill="white"/>
</clipPath>
</defs>
</svg>
